HIERARCHY
ROOT pelvis
{
	OFFSET 0.00 0.00 0.00
	CHANNELS 6 Xposition Yposition Zposition Xrotation Yrotation Zrotation
	JOINT lfemur
	{
		OFFSET 0.00000 3.26371 0.00000
		CHANNELS 3 Xrotation Yrotation Zrotation
		JOINT ltibia
		{
			OFFSET 0.00000 0.00000 -17.39272
			CHANNELS 3 Xrotation Yrotation Zrotation
			JOINT lfoot
			{
				OFFSET 0.00000 0.00000 -17.72520
				CHANNELS 3 Xrotation Yrotation Zrotation
				JOINT ltoes
				{
					OFFSET 4.21806 0.00000 0.00000
					CHANNELS 3 Xrotation Yrotation Zrotation
				}
			}
		}
	}
	JOINT rfemur
	{
		OFFSET 0.00000 -3.26371 0.00000
		CHANNELS 3 Xrotation Yrotation Zrotation
		JOINT rtibia
		{
			OFFSET 0.00000 0.00000 -17.39272
			CHANNELS 3 Xrotation Yrotation Zrotation
			JOINT rfoot
			{
				OFFSET 0.00000 0.00000 -17.72520
				CHANNELS 3 Xrotation Yrotation Zrotation
				JOINT rtoes
				{
					OFFSET 4.21806 0.00000 0.00000
					CHANNELS 3 Xrotation Yrotation Zrotation
				}
			}
		}
	}
	JOINT thorax
	{
		OFFSET -1.96850 0.00000 6.16593
		CHANNELS 6 Xposition Yposition Zposition Xrotation Yrotation Zrotation
		JOINT head
		{
			OFFSET 0.00000 0.00000 18.21355
			CHANNELS 6 Xposition Yposition Zposition Xrotation Yrotation Zrotation
		}
		JOINT lclavicle
		{
			OFFSET 0.00000 0.00000 15.13875
			CHANNELS 3 Xrotation Yrotation Zrotation
			JOINT lhumerus
			{
				OFFSET 0.00000 7.18963 -1.52650
				CHANNELS 3 Xrotation Yrotation Zrotation
				JOINT lradius
				{
					OFFSET 0.00000 0.00000 -10.12096
					CHANNELS 3 Xrotation Yrotation Zrotation
					JOINT lhand
					{
						OFFSET 0.00000 0.00000 -10.45726
						CHANNELS 3 Xrotation Yrotation Zrotation
					}
				}
			}
		}
		JOINT rclavicle
		{
			OFFSET 0.00000 0.00000 15.13875
			CHANNELS 3 Xrotation Yrotation Zrotation
			JOINT rhumerus
			{
				OFFSET 0.00000 -7.18963 -1.52650
				CHANNELS 3 Xrotation Yrotation Zrotation
				JOINT rradius
				{
					OFFSET 0.00000 0.00000 -10.12096
					CHANNELS 3 Xrotation Yrotation Zrotation
					JOINT rhand
					{
						OFFSET 0.00000 0.00000 -10.45726
						CHANNELS 3 Xrotation Yrotation Zrotation
					}
				}
			}
		}
	}
}
MOTION
Frames: 22
Frame Time: 0.008333
 10.6956 -3.7189 31.3688 -1.7127 -2.6745 -27.5620 27.8198 -36.5677 31.8954 -0.0000 55.0596 0.0000 0.0000 11.7381 -6.6650 0.0000 -27.5521 -0.0000 -17.4289 9.4186 -8.7676 -0.0000 43.0659 0.0000 0.0000 -3.4695 -14.7018 0.0000 -41.0759 -0.0000 8.2955 -1.8399 37.2089 -1.6952 8.6507 7.2007 10.3435 -3.1844 55.4123 -0.9228 1.5355 17.5148 -20.2842 0.0000 -5.7668 47.8098 -4.0853 1.2318 0.0000 -83.8198 0.4012 2.5931 4.2273 -0.0000 9.8884 -0.0000 -4.9923 -40.5280 4.5723 24.8857 180.0000 -85.6061 -151.6283 17.1226 1.3658 -0.0000
 10.8292 -3.6922 31.4272 -1.6822 -2.5087 -27.3655 27.9317 -36.5352 32.5050 -0.0000 55.1281 0.0000 0.0000 11.7603 -6.8037 0.0000 -27.7343 -0.0000 -17.2553 9.8915 -8.7385 -0.0000 41.8535 0.0000 0.0000 -3.4611 -14.9127 0.0000 -40.6646 -0.0000 8.4377 -1.8251 37.2781 -1.6042 8.3759 7.1940 10.4623 -3.1617 55.4796 -0.7804 1.5817 17.4582 -20.2726 0.0000 -5.9481 48.0711 -4.8371 1.7038 0.0000 -84.5175 1.7903 3.0133 4.6090 0.0000 9.8041 -0.0000 -5.1356 -40.6960 4.6088 25.1841 180.0000 -85.3164 -151.9877 17.1593 1.4042 0.0000
 10.9558 -3.6681 31.4712 -1.6566 -2.3418 -27.1834 28.1179 -36.5434 33.3200 -0.0000 55.2704 0.0000 0.0000 11.6251 -6.8149 0.0000 -27.4127 -0.0000 -17.1225 10.4724 -8.7067 -0.0000 40.5460 0.0000 0.0000 -3.4165 -15.0644 0.0000 -40.3743 -0.0000 8.5787 -1.8128 37.3369 -1.4901 8.0937 7.1768 10.5723 -3.1409 55.5368 -0.6586 1.6082 17.4106 -20.2868 0.0000 -6.0992 48.2874 -5.5700 2.3376 0.0000 -85.2246 2.9540 2.8799 5.1878 -0.0000 9.7064 -0.0000 -5.2750 -40.8423 4.6376 25.4387 180.0000 -85.0584 -152.2626 17.0696 1.3654 0.0000
 11.1096 -3.6763 31.5080 -1.5482 -2.1886 -27.3386 28.6123 -36.3280 34.9505 -0.0000 55.5614 0.0000 0.0000 11.4643 -6.7622 0.0000 -27.0068 -0.0000 -17.0367 11.0700 -8.1215 -0.0000 39.1416 0.0000 0.0000 -3.0952 -15.4596 0.0000 -40.3863 -0.0000 8.7157 -1.8025 37.3859 -1.5036 7.7446 7.4124 10.6718 -3.1197 55.5829 -0.5257 1.6809 17.4338 -20.2881 0.0000 -6.1746 48.5611 -6.2902 2.8769 0.0000 -85.8595 3.8804 3.0171 5.4827 0.0000 9.5734 -0.0000 -5.3259 -40.9375 4.6603 25.7132 180.0000 -84.8938 -152.3746 17.0078 1.3120 0.0000
 11.2359 -3.6715 31.5336 -1.4365 -2.0543 -27.3950 29.0157 -36.2120 36.5792 -0.0000 55.8327 0.0000 0.0000 11.2356 -6.3414 0.0000 -26.2507 -0.0000 -16.9063 11.7439 -7.3710 -0.0000 37.7781 0.0000 0.0000 -2.8809 -15.8105 0.0000 -40.4812 -0.0000 8.8437 -1.7998 37.4221 -1.5121 7.4196 7.6059 10.7652 -3.0997 55.6201 -0.4598 1.6996 17.3122 -20.2877 0.0000 -6.2680 48.8198 -7.0075 3.4515 0.0000 -86.4683 4.5711 3.0047 5.8741 0.0000 9.4702 -0.0000 -5.4316 -41.0112 4.6764 25.9240 180.0000 -84.7347 -152.5839 16.7562 1.1893 0.0000
 11.3323 -3.6652 31.5465 -1.3401 -1.9364 -27.4626 29.4585 -36.1403 38.2713 -0.0000 56.1646 0.0000 0.0000 11.0603 -5.7330 0.0000 -25.4706 -0.0000 -16.8382 12.4247 -6.7548 -0.0000 36.4757 0.0000 0.0000 -2.7842 -15.6792 0.0000 -40.6473 -0.0000 8.9486 -1.7972 37.4476 -1.5444 7.1550 7.7575 10.8495 -3.0807 55.6374 -0.3617 1.6468 17.2585 -20.2564 0.0000 -6.3807 49.0757 -7.7157 4.1217 0.0000 -87.0280 4.8806 3.1305 5.9762 -0.0000 9.3994 -0.0000 -5.5132 -41.0292 4.6388 26.0481 180.0000 -84.6798 -152.9519 15.5918 0.0524 0.0000
 11.4406 -3.6703 31.5492 -1.2013 -1.7693 -27.4983 29.8980 -36.0829 39.9664 -0.0000 56.5038 0.0000 0.0000 10.6366 -5.1080 0.0000 -24.4608 -0.0000 -16.7388 13.1867 -5.9402 -0.0000 35.0327 0.0000 0.0000 -2.3921 -15.6892 0.0000 -41.2488 -0.0000 9.0675 -1.8067 37.4618 -1.5845 6.8169 7.8479 10.9371 -3.0669 55.6509 -0.3580 1.5628 17.0968 -20.2056 0.0000 -6.3401 49.2553 -8.4191 4.6868 0.0000 -87.6309 4.9596 3.4446 6.0088 0.0000 9.2839 -0.0000 -5.6555 -41.1410 4.3832 26.4183 180.0000 -84.6433 -152.9595 16.0107 0.7158 0.0000
 11.5272 -3.6783 31.5324 -1.0587 -1.6083 -27.5677 30.3966 -36.0295 41.6547 -0.0000 56.9123 0.0000 0.0000 10.3167 -4.5327 0.0000 -24.0525 -0.0000 -16.7408 13.9006 -5.3045 -0.0000 33.6657 0.0000 0.0000 -2.0621 -15.7481 0.0000 -41.9008 -0.0000 9.1771 -1.8162 37.4635 -1.6322 6.4541 8.0072 11.0015 -3.0539 55.6538 -0.3209 1.5925 17.0693 -20.1177 0.0000 -6.3926 49.4445 -9.0483 5.2302 0.0000 -88.1602 5.0006 3.6296 5.9210 0.0000 9.2205 -0.0000 -5.7326 -41.2033 4.3040 26.5818 180.0000 -84.5324 -153.1228 15.9763 1.1933 0.0000
 11.6063 -3.6776 31.5141 -0.8936 -1.3964 -27.5825 30.7836 -36.0468 43.1572 -0.0000 57.1525 0.0000 0.0000 9.8916 -3.8997 0.0000 -23.3717 -0.0000 -16.6618 14.6082 -4.3580 -0.0000 32.2095 0.0000 0.0000 -1.3149 -16.4015 0.0000 -43.0416 -0.0000 9.2696 -1.8280 37.4536 -1.6948 6.0677 8.0673 11.0486 -3.0391 55.6543 -0.2833 1.6689 17.0384 -20.0392 0.0000 -6.4793 49.6631 -9.6855 5.9262 0.0000 -88.6838 4.7266 3.8014 6.2581 -0.0000 9.1401 -0.0000 -5.7741 -41.2270 4.1391 26.7280 -180.0000 -84.5286 -153.2824 15.9272 1.2746 0.0000
 11.6781 -3.6770 31.4817 -0.7189 -1.1676 -27.5452 31.1243 -36.1460 44.3395 -0.0000 57.4404 0.0000 0.0000 9.4117 -3.6219 0.0000 -22.8124 -0.0000 -16.6202 15.2945 -3.5194 -0.0000 30.7803 0.0000 0.0000 -0.7351 -17.0978 0.0000 -43.9361 -0.0000 9.3664 -1.8387 37.4320 -1.7290 5.6428 8.0886 11.1038 -3.0297 55.6437 -0.2857 1.7164 16.9589 -19.9436 0.0000 -6.5673 49.8496 -10.2396 6.5221 0.0000 -89.1781 4.6365 3.9968 6.3128 0.0000 9.0836 -0.0000 -5.8698 -41.2900 3.9666 26.8610 180.0000 -84.4964 -153.4201 15.9226 1.6905 -0.0000
 11.7450 -3.6716 31.4408 -0.5506 -0.9191 -27.4468 31.3531 -36.3322 45.0093 -0.0000 57.7406 0.0000 0.0000 8.9421 -3.8291 0.0000 -22.5289 -0.0000 -16.5836 15.9462 -2.7709 -0.0000 29.3954 0.0000 0.0000 -0.4857 -17.5130 0.0000 -44.4294 -0.0000 9.4619 -1.8502 37.4012 -1.7372 5.1704 8.0627 11.1486 -3.0221 55.6269 -0.2769 1.8514 16.9145 -19.8772 0.0000 -6.7022 50.0531 -10.7405 7.1313 0.0000 -89.6242 4.5531 4.0570 6.4375 0.0000 9.0286 -0.0000 -5.8927 -41.4075 3.9177 26.9642 180.0000 -84.4375 -153.4709 15.7803 1.8589 0.0000
 11.8025 -3.6542 31.3977 -0.3977 -0.6191 -27.2984 31.4780 -36.6570 45.1902 -0.0000 57.9831 0.0000 0.0000 8.5610 -4.2336 0.0000 -22.4876 -0.0000 -16.4918 16.5343 -2.0485 -0.0000 27.9934 0.0000 0.0000 -0.5283 -17.8005 0.0000 -44.5427 -0.0000 9.5530 -1.8667 37.3617 -1.7493 4.7007 7.9421 11.1992 -3.0230 55.5980 -0.2464 1.8768 16.9224 -19.7854 0.0000 -6.7778 50.2939 -11.2614 7.6951 180.0000 -89.9403 -175.4020 4.2879 6.4734 -0.0000 9.0165 -0.0000 -5.8619 -41.5112 3.8687 26.9517 180.0000 -84.3498 -153.5299 15.9333 2.0677 0.0000
 11.8646 -3.6429 31.3400 -0.2820 -0.3255 -27.1200 31.6510 -37.0661 45.2411 -0.0000 58.3735 0.0000 0.0000 8.1365 -4.7737 0.0000 -22.1484 -0.0000 -16.4094 17.0563 -1.6237 -0.0000 26.7593 0.0000 0.0000 -0.7517 -18.0455 -0.0000 -44.5766 -0.0000 9.6314 -1.8688 37.3173 -1.6674 4.2590 7.7848 11.2338 -3.0140 55.5632 -0.2336 1.9770 16.9258 -19.7585 0.0000 -6.8989 50.4367 -11.7001 8.3311 180.0000 -89.5460 -175.1293 4.4966 6.2462 0.0000 9.0360 -0.0000 -5.7057 -41.7562 3.9188 26.9238 180.0000 -84.2022 -153.5088 15.8069 2.3234 0.0000
 11.9131 -3.6292 31.2799 -0.2192 -0.0242 -26.9361 31.8419 -37.5745 45.1661 -0.0000 58.7939 0.0000 0.0000 7.8262 -4.9919 0.0000 -21.8380 -0.0000 -16.2661 17.4809 -1.3605 -0.0000 25.7150 0.0000 -0.0000 -1.0311 -18.2745 0.0000 -44.4847 -0.0000 9.6998 -1.8811 37.2627 -1.6167 3.8970 7.6244 11.2616 -3.0069 55.5288 -0.1431 2.0280 16.9603 -19.7367 0.0000 -6.9461 50.7902 -12.2929 8.9125 180.0000 -89.1623 -175.0202 4.3721 6.5348 0.0000 9.0798 -0.0000 -5.6971 -41.9467 3.7674 26.9021 180.0000 -84.1633 -153.4727 15.5797 2.2903 0.0000
 11.9555 -3.6141 31.2111 -0.2100 0.2901 -26.7185 32.0697 -38.1858 45.0334 -0.0000 59.2906 0.0000 0.0000 7.5961 -4.9519 0.0000 -21.7855 -0.0000 -16.0729 17.8140 -1.3528 -0.0000 24.8849 0.0000 0.0000 -1.3493 -18.4346 0.0000 -44.3851 -0.0000 9.7619 -1.8805 37.2105 -1.4631 3.5618 7.4587 11.3019 -3.0015 55.4860 -0.1051 1.9833 16.9005 -19.7545 0.0000 -7.0770 51.0235 -12.8239 9.5914 180.0000 -88.9290 -174.8224 4.1571 6.4012 -0.0000 9.1540 -0.0000 -5.6300 -42.2211 3.6837 26.7928 180.0000 -84.1148 -153.3863 15.4515 2.3257 0.0000
 11.9897 -3.6012 31.1398 -0.2562 0.6417 -26.5632 32.4431 -38.8100 45.0545 -0.0000 59.8348 0.0000 0.0000 7.4329 -4.7364 0.0000 -21.8759 -0.0000 -15.7855 18.0023 -1.3563 -0.0000 24.2367 0.0000 -0.0000 -1.6931 -18.8168 0.0000 -44.1810 -0.0000 9.8227 -1.8886 37.1554 -1.2737 3.1789 7.3456 11.3386 -2.9935 55.4469 -0.0428 2.0181 16.8260 -19.7528 0.0000 -7.2511 51.2861 -13.2073 10.1935 -180.0000 -88.6735 -174.4703 4.0225 6.2995 0.0000 9.3552 -0.0000 -5.5915 -42.6285 3.5406 26.7060 180.0000 -84.1023 -153.2253 15.4937 2.5123 0.0000
 12.0234 -3.5970 31.0772 -0.2554 0.6679 -26.6460 32.6040 -39.0078 45.0828 -0.0000 60.2814 0.0000 0.0000 7.1687 -4.4651 0.0000 -21.7925 -0.0000 -15.8412 18.1917 -1.5071 -0.0000 23.9118 0.0000 0.0000 -2.2335 -18.8896 0.0000 -43.7916 -0.0000 9.8861 -1.8878 37.0980 -1.2497 3.0633 7.4622 11.3723 -2.9844 55.3994 -0.0062 2.0586 16.7543 -19.7525 0.0000 -7.4654 51.4255 -13.4504 10.7890 180.0000 -88.3368 -174.2266 4.0204 6.4155 0.0000 9.3267 -0.0000 -5.4921 -42.7117 3.5041 26.5682 180.0000 -84.2262 -153.1308 15.2384 2.3243 -0.0000
 12.0510 -3.5970 31.0275 -0.2956 0.8907 -26.5854 32.7677 -39.3845 44.9334 -0.0000 60.5898 0.0000 0.0000 6.8774 -4.2004 0.0000 -21.8984 -0.0000 -15.5557 18.4192 -1.4107 -0.0000 23.2473 0.0000 0.0000 -2.6339 -19.6475 0.0000 -43.3373 -0.0000 9.9078 -1.8891 37.0458 -1.1715 2.9192 7.4712 11.4049 -2.9817 55.3547 0.0892 1.9588 16.7342 -19.7638 0.0000 -7.7183 51.6242 -13.8295 11.4763 180.0000 -88.1677 -174.1591 3.8680 6.2783 0.0000 9.5169 -0.0000 -5.3651 -43.0143 3.3696 26.2928 180.0000 -84.2907 -153.0885 15.0083 2.0752 0.0000
 12.0731 -3.5911 30.9769 -0.3124 0.9150 -26.6719 32.8506 -39.5089 44.8266 -0.0000 60.8884 0.0000 0.0000 6.4992 -4.0461 0.0000 -21.7509 -0.0000 -15.5630 18.5541 -1.6889 -0.0000 22.9469 0.0000 0.0000 -3.1792 -19.9551 0.0000 -42.7523 -0.0000 9.9648 -1.8913 36.9917 -1.1281 2.8117 7.5480 11.4335 -2.9737 55.3122 0.0871 2.0317 16.6783 -19.7708 0.0000 -7.8886 51.7133 -13.9758 11.9858 180.0000 -87.9415 -174.1273 3.8391 6.2610 -0.0000 9.5320 -0.0000 -5.2718 -43.0954 3.2461 26.1441 180.0000 -84.5530 -152.8273 14.3079 1.3016 0.0000
 12.0645 -3.6162 30.9352 -0.5519 1.2383 -26.8105 33.4842 -39.7291 44.9060 -0.0000 61.1507 0.0000 0.0000 6.1546 -4.0209 0.0000 -21.8266 -0.0000 -15.0978 18.5330 -1.6950 -0.0000 22.5926 0.0000 -0.0000 -3.6870 -20.3523 -0.0000 -42.1772 -0.0000 9.9893 -1.8890 36.9445 -0.8141 2.6813 7.8205 11.4613 -2.9747 55.2692 0.1402 1.9747 16.6132 -19.7308 0.0000 -8.0155 51.6577 -14.4634 12.4232 180.0000 -87.8879 -174.3210 3.7162 6.3176 -0.0000 9.8642 -0.0000 -5.5465 -43.7043 2.7083 26.1445 180.0000 -84.6705 -153.0471 14.6724 1.9653 0.0000
 12.0689 -3.6098 30.8953 -0.5729 1.2480 -26.9336 33.5524 -39.8259 44.7445 -0.0000 61.3817 0.0000 0.0000 5.8555 -3.8893 0.0000 -21.6753 -0.0000 -15.1526 18.5965 -1.7438 -0.0000 22.5484 0.0000 0.0000 -4.1014 -20.1410 -0.0000 -41.8133 -0.0000 10.0397 -1.8929 36.8981 -0.7764 2.5949 7.8481 11.4873 -2.9749 55.2322 0.0833 2.0778 16.6570 -19.7598 0.0000 -8.1466 51.7390 -14.4669 12.8842 180.0000 -87.6904 -174.3535 3.6968 6.3807 0.0000 9.8467 -0.0000 -5.3941 -43.6690 2.5905 25.9576 180.0000 -85.0098 -152.7793 14.4307 1.5835 0.0000
 12.0640 -3.6179 30.8609 -0.7096 1.3100 -27.1374 33.8823 -39.8674 44.7443 -0.0000 61.6569 0.0000 0.0000 5.6441 -3.8379 0.0000 -21.5987 -0.0000 -15.1338 18.4285 -1.8070 -0.0000 22.8466 0.0000 0.0000 -4.4782 -19.6696 0.0000 -41.5669 -0.0000 10.0609 -1.8885 36.8573 -0.6349 2.6326 8.1023 11.5147 -2.9750 55.1962 0.0809 2.0583 16.6244 -19.7417 0.0000 -8.2545 51.7319 -14.8035 13.1907 180.0000 -87.8330 -174.3632 3.8357 5.9106 -0.0000 9.8763 -0.0000 -5.2878 -43.6984 2.5245 25.6804 180.0000 -85.1876 -152.6369 14.4451 1.7276 -0.0000
